<svg width="126" height="120" viewBox="0 0 126 120" fill="none" xmlns="http://www.w3.org/2000/svg">
<path d="M99.413 28.2001C95.3862 32.2661 91.5376 36.2364 87.5891 40.111C84.545 43.1116 79.6876 41.7418 78.7657 37.6758C78.3308 35.7102 78.944 34.0447 80.3616 32.6357C83.858 29.1568 87.3485 25.6591 90.8332 22.1425C91.2115 21.7641 91.5768 21.3684 92.3682 20.5378C91.6225 20.0749 90.9131 19.5559 90.2461 18.9854C87.0716 15.863 83.9406 12.6972 80.7965 9.54447C78.1482 6.88745 77.9134 3.76078 80.1877 1.51253C82.462 -0.735713 85.5278 -0.435657 88.2022 2.22571C91.916 5.94814 95.6167 9.68362 99.5696 13.6626C101.309 11.8188 102.922 10.075 104.584 8.37903C106.827 6.0873 109.08 3.80861 111.372 1.58211C113.546 -0.505235 116.629 -0.513932 118.686 1.47774C120.743 3.46942 120.834 6.69611 118.712 8.92696C116.803 10.9273 114.799 12.8407 112.859 14.8194C110.92 16.798 108.945 18.7331 106.832 20.8161C107.267 21.2858 107.654 21.7076 108.054 22.1207C111.615 25.6997 115.212 29.2481 118.738 32.8619C119.628 33.7366 120.173 34.9031 120.272 36.147C120.371 37.391 120.018 38.6289 119.278 39.6335C118.538 40.6381 117.46 41.342 116.242 41.6158C115.025 41.8897 113.749 41.7151 112.65 41.1243C111.959 40.6927 111.329 40.1706 110.776 39.5718C107.023 35.8581 103.331 32.1269 99.413 28.2001Z" fill="#0171C7"/>
<path d="M21.355 99.1481C16.0366 99.1481 10.9487 99.1873 5.85645 99.1481C1.73829 99.1046 -0.766527 94.9648 1.17297 91.4597C2.1949 89.5811 3.85173 88.7114 5.98691 88.7114C10.4312 88.7114 14.877 88.7114 19.3242 88.7114H21.355V86.9198C21.355 82.4668 21.355 78.0138 21.355 73.5608C21.355 70.2123 23.4858 67.8771 26.5038 67.8466C29.5217 67.8162 31.7569 70.1862 31.7656 73.6129C31.7656 78.0659 31.7656 82.5233 31.7656 86.9763V88.7158H44.4028C45.3812 88.7158 46.3553 88.7158 47.3337 88.7158C48.0458 88.668 48.76 88.7667 49.4324 89.0059C50.1047 89.2451 50.7208 89.6197 51.2427 90.1064C51.7645 90.5932 52.181 91.1818 52.4663 91.8359C52.7516 92.49 52.8998 93.1957 52.9016 93.9093C52.9033 94.623 52.7587 95.3294 52.4767 95.9849C52.1946 96.6404 51.7811 97.2311 51.2618 97.7205C50.7424 98.2098 50.1281 98.5875 49.457 98.8301C48.7858 99.0726 48.0721 99.175 47.3598 99.1307C42.7503 99.1786 38.1451 99.1307 33.5355 99.1307H31.7526V104.427C31.7526 107.85 31.783 111.272 31.7526 114.695C31.7641 115.387 31.6377 116.075 31.3806 116.718C31.1235 117.361 30.741 117.947 30.2553 118.441C29.7695 118.935 29.1904 119.327 28.5515 119.594C27.9126 119.862 27.2269 120 26.5342 120C23.625 120.022 21.355 117.704 21.355 114.647C21.3115 109.55 21.355 104.453 21.355 99.1481Z" fill="#0171C7"/>
<path d="M26.469 26.091C19.6373 26.091 12.8012 26.1171 5.96951 26.091C1.94702 26.091 -0.631719 22.3077 0.955534 18.7984C1.96007 16.5806 3.78215 15.65 6.1739 15.6543C17.2948 15.6775 28.4143 15.6775 39.5323 15.6543C42.0806 15.6543 44.6289 15.6543 47.1815 15.6543C50.2256 15.6934 52.5347 17.9156 52.5608 20.8161C52.5869 23.7167 50.2908 26.091 47.1381 26.091C40.2498 26.091 33.3572 26.091 26.469 26.091Z" fill="#0171C7"/>
<path d="M99.4565 99.1133C106.414 99.1133 113.342 99.1133 120.286 99.1133C121.437 99.0964 122.559 99.4685 123.472 100.169C124.384 100.87 125.033 101.859 125.314 102.975C125.623 104.055 125.56 105.207 125.134 106.246C124.708 107.286 123.944 108.151 122.965 108.702C122.013 109.208 120.955 109.482 119.878 109.502C106.252 109.554 92.6379 109.563 79.0353 109.528C75.7434 109.528 73.3821 107.267 73.4212 104.249C73.4604 101.231 75.7564 99.1133 79.1179 99.1046C85.896 99.0988 92.6755 99.1017 99.4565 99.1133Z" fill="#0171C7"/>
<path d="M99.3695 88.7505C92.4813 88.7505 85.5931 88.7897 78.7048 88.7505C74.6562 88.7201 72.1819 84.6802 74.0213 81.1796C75.1259 79.0705 76.9871 78.3225 79.2832 78.3225C91.7029 78.3399 104.124 78.3399 116.547 78.3225C117.738 78.3225 118.934 78.2964 120.126 78.3225C123.274 78.4138 125.561 80.7142 125.496 83.68C125.427 86.5675 123.144 88.7288 120.034 88.7418C113.146 88.7723 106.258 88.7549 99.3695 88.7505Z" fill="#0171C7"/>
</svg>
