<svg width="17" height="16" viewBox="0 0 17 16" fill="none" xmlns="http://www.w3.org/2000/svg">
<path d="M12.506 0.336089L4.85311 2.87858C-0.291205 4.59901 -0.291205 7.40425 4.85311 9.1162L7.1244 9.87047L7.87864 12.1418C9.59059 17.2861 12.4043 17.2861 14.1162 12.1418L16.6672 4.49731C17.8028 1.06494 15.9383 -0.808033 12.506 0.336089ZM12.7772 4.89563L9.55669 8.1331C9.42956 8.26022 9.26854 8.31955 9.10752 8.31955C8.94649 8.31955 8.78547 8.26022 8.65834 8.1331C8.41257 7.88732 8.41257 7.48053 8.65834 7.23475L11.8788 3.99728C12.1246 3.75151 12.5314 3.75151 12.7772 3.99728C13.023 4.24306 13.023 4.64986 12.7772 4.89563Z" fill="white"/>
</svg>
