<svg width="125" height="122" viewBox="0 0 125 122" fill="none" xmlns="http://www.w3.org/2000/svg">
<path d="M124.46 111.855C123.708 113.616 123.214 115.557 122.152 117.109C119.827 120.499 116.391 121.997 112.283 121.997C103 121.997 93.7195 121.997 84.441 121.997C80.769 121.997 77.0971 121.946 73.4281 121.997C69.0102 122.073 65.3897 120.56 62.7548 116.931C62.656 116.83 62.5461 116.742 62.4273 116.667C60.8384 118.856 58.9008 120.609 56.278 121.321C54.926 121.714 53.5284 121.928 52.1209 121.958C38.9672 122.004 25.8135 122.011 12.6599 121.979C5.61609 121.979 0.5311 116.873 0.506842 109.85C0.500778 101.55 0.497746 93.243 0.497746 84.9287C0.487611 84.6467 0.492672 84.3643 0.512907 84.0827C0.619034 83.0002 1.31341 82.315 2.28977 82.3028C3.26614 82.2907 3.99387 82.9669 4.10909 84.0312C4.1349 84.3934 4.14098 84.7568 4.12728 85.1198C4.12728 93.2319 4.12728 101.342 4.12728 109.45C4.12728 115.02 7.4445 118.365 12.9874 118.365C25.9793 118.365 38.9723 118.365 51.9662 118.365C56.2689 118.365 59.3163 116.163 60.3502 112.276C60.5683 111.376 60.6702 110.452 60.6535 109.526C60.6716 96.5723 60.6716 83.6198 60.6535 70.6683C60.6535 66.211 58.5067 63.1636 54.6103 62.1357C53.6717 61.9072 52.7078 61.7992 51.7418 61.8143C38.8267 61.7961 25.9146 61.7961 13.0055 61.8143C7.47179 61.8082 4.13638 65.1558 4.13638 70.7077C4.13638 72.5271 4.15154 74.3464 4.13638 76.1657C4.12122 77.515 3.4511 78.3125 2.37164 78.3428C1.24367 78.3731 0.528068 77.5453 0.515939 76.1354C0.497746 74.1978 0.515939 72.2602 0.515939 70.3226C0.540197 63.3486 5.56757 58.2484 12.5538 58.1939C18.6181 58.1423 24.6583 58.1939 30.7105 58.1939H32.163C31.8173 57.3176 31.3988 56.5777 31.2533 55.7863C30.9501 54.3339 30.6256 52.8511 30.6196 51.3836C30.5711 38.3906 30.5862 25.3977 30.5953 12.4047C30.5741 5.03344 35.6197 0 42.9697 0C56.0021 0 69.0334 0 82.0638 0C89.341 0 94.3836 5.05164 94.3927 12.3289C94.4068 20.4794 94.4068 28.63 94.3927 36.7805C94.4015 37.2219 94.3567 37.6628 94.2593 38.0935C94.1878 38.4987 93.9653 38.8618 93.6367 39.1094C93.308 39.357 92.8977 39.4707 92.4885 39.4276C92.0566 39.4321 91.6397 39.2691 91.3254 38.9728C91.0111 38.6766 90.8237 38.2701 90.8026 37.8387C90.7631 37.3972 90.7509 36.9537 90.7662 36.5107C90.7662 28.4389 90.7662 20.3683 90.7662 12.2986C90.7662 8.83885 89.4411 6.04923 86.2179 4.53313C84.9739 3.96811 83.6241 3.67356 82.2579 3.66895C69.0648 3.60528 55.8778 3.61741 42.6756 3.63863C37.7149 3.63863 34.243 6.97405 34.2188 11.9681C34.1581 25.243 34.1885 38.518 34.2188 51.7929C34.2188 53.9154 34.7828 55.8833 36.3262 57.4176C36.7701 57.8424 37.3503 58.096 37.9635 58.1332C42.4815 58.1908 46.9995 58.1726 51.5175 58.1635C54.016 58.1635 56.4114 58.5395 58.6007 59.8464C58.9919 60.044 59.4238 60.1479 59.8621 60.1496C60.7899 60.1921 61.7208 60.1496 62.6456 60.1678C64.4649 60.2042 66.1478 60.0253 67.8943 59.2097C69.4711 58.4728 71.3905 58.2666 73.1704 58.2121C77.6459 58.0817 82.1275 58.112 86.606 58.2121C87.8917 58.2363 88.6224 57.6754 89.2713 56.7475C90.3781 55.1677 90.7662 53.3818 90.7874 51.4897C90.7874 49.6704 90.7662 47.8511 90.8086 46.0317C90.8359 44.9189 91.5151 44.2306 92.4945 44.1791C92.7287 44.1549 92.9654 44.1801 93.1893 44.253C93.4132 44.3259 93.6193 44.4449 93.7944 44.6023C93.9695 44.7596 94.1097 44.952 94.206 45.1668C94.3022 45.3817 94.3524 45.6144 94.3533 45.8498C94.2957 49.0245 94.1531 52.2174 93.8954 55.3648C93.8196 56.2745 93.2374 57.1478 92.8372 58.1635H94.232C100.124 58.1635 106.015 58.2394 111.904 58.1423C118.062 58.0392 123.189 61.8992 124.308 67.9636C124.35 68.0732 124.408 68.1755 124.481 68.2668L124.46 111.855ZM120.821 90.1562C120.821 83.6976 120.821 77.2411 120.821 70.7866C120.821 65.1406 117.522 61.8082 111.901 61.8052C98.9895 61.8052 86.0774 61.8052 73.1643 61.8052C72.1977 61.7912 71.2334 61.9033 70.2958 62.1388C66.3995 63.1879 64.2982 66.214 64.2982 70.7017C64.2982 83.6128 64.2982 96.5248 64.2982 109.438C64.2749 110.364 64.3655 111.29 64.568 112.194C65.5777 116.136 68.6554 118.35 73.0248 118.353C86.0188 118.353 99.0117 118.353 112.004 118.353C117.462 118.353 120.812 114.993 120.815 109.511C120.829 103.064 120.834 96.6128 120.83 90.1562H120.821Z" fill="#0171C7"/>
<path d="M8.00849 90.0349C8.00849 85.1531 7.98727 80.2743 8.00849 75.3925C8.03578 70.7259 10.6677 67.2359 15.0917 66.0382C16.1073 65.7883 17.151 65.6711 18.1967 65.6895C27.6793 65.6652 37.159 65.6652 46.6356 65.6895C51.6903 65.6895 55.2258 68.2517 56.4478 72.8242C56.682 73.803 56.791 74.8077 56.7722 75.8139C56.7925 85.335 56.7925 94.8551 56.7722 104.374C56.7722 109.414 54.2464 112.922 49.7467 114.141C48.7704 114.387 47.7666 114.506 46.7599 114.496C37.2004 114.522 27.6399 114.522 18.0784 114.496C11.9564 114.496 8.00243 110.539 7.99333 104.438C7.99737 99.6349 8.00243 94.8339 8.00849 90.0349ZM11.6471 90.0349C11.6471 94.8864 11.6471 99.7137 11.6471 104.553C11.6471 108.495 14.0092 110.854 17.9874 110.857C27.5874 110.869 37.1893 110.869 46.7933 110.857C50.7988 110.857 53.1609 108.571 53.1609 104.586C53.1912 94.9077 53.1912 85.2299 53.1609 75.5532C53.1609 71.6113 50.82 69.316 46.8903 69.3069C37.252 69.2826 27.6137 69.2826 17.9753 69.3069C13.9819 69.3069 11.6623 71.6629 11.6562 75.635C11.638 80.438 11.633 85.2451 11.6411 90.0562L11.6471 90.0349Z" fill="#0171C7"/>
<path d="M62.4606 7.50771C67.3819 7.50771 72.3031 7.48042 77.2244 7.50771C81.8394 7.54107 85.3173 10.1579 86.515 14.5121C86.7653 15.4866 86.8877 16.4896 86.8789 17.4958C86.9072 27.0957 86.9072 36.6976 86.8789 46.3016C86.8789 51.241 84.253 54.7675 79.7108 55.9652C78.8097 56.1832 77.8845 56.2851 76.9576 56.2684C67.3182 56.2897 57.6758 56.3078 48.0335 56.2684C43.088 56.2533 39.6191 53.6911 38.4244 49.2095C38.1844 48.1956 38.0743 47.1553 38.097 46.1136C38.0727 36.6309 38.0727 27.1503 38.097 17.6716C38.097 11.4101 42.0388 7.51378 48.3246 7.50771C53.0285 7.50367 57.7405 7.50367 62.4606 7.50771ZM62.5092 52.6571C67.2667 52.6571 72.0242 52.6571 76.7847 52.6571C81.0025 52.6419 83.2585 50.3617 83.2615 46.1227C83.2615 36.6441 83.2615 27.1664 83.2615 17.6898C83.2615 13.4084 80.9752 11.1433 76.6725 11.1433C67.2364 11.1433 57.7992 11.1433 48.3609 11.1433C43.9734 11.1433 41.7053 13.3841 41.6901 17.7414C41.6901 27.1776 41.6901 36.6148 41.6901 46.053C41.6901 50.4254 43.9339 52.654 48.3397 52.6601C53.0659 52.6642 57.789 52.6631 62.5092 52.6571Z" fill="#0171C7"/>
<path d="M116.955 90.1865C116.955 94.9471 116.955 99.7076 116.955 104.465C116.955 110.502 112.989 114.487 106.949 114.496C97.3491 114.51 87.7471 114.51 78.1432 114.496C73.2219 114.496 69.6833 111.873 68.4796 107.328C68.2617 106.426 68.1599 105.501 68.1763 104.574C68.1551 94.935 68.1369 85.2926 68.1763 75.6532C68.1915 70.7077 70.7234 67.2783 75.2353 66.0442C76.2513 65.7907 77.2962 65.6714 78.3433 65.6895C87.8219 65.6652 97.3016 65.6652 106.782 65.6895C113.044 65.6895 116.943 69.6313 116.949 75.917C116.957 80.6695 116.959 85.426 116.955 90.1865ZM113.317 90.1865C113.317 85.3876 113.317 80.5886 113.317 75.7897C113.317 71.6447 111.027 69.316 106.904 69.3099C97.346 69.2937 87.7886 69.2937 78.2311 69.3099C74.1407 69.3099 71.815 71.5931 71.8059 75.6502C71.7857 85.2906 71.7857 94.9289 71.8059 104.565C71.8059 108.556 74.1619 110.857 78.1492 110.863C87.7451 110.863 97.3471 110.863 106.955 110.863C110.997 110.863 113.323 108.516 113.323 104.462C113.329 99.7097 113.329 94.9521 113.323 90.1896L113.317 90.1865Z" fill="#0171C7"/>
<path d="M18.3877 90.0744C18.3877 86.1143 18.3877 82.1725 18.3877 78.2306C18.3877 74.592 20.5557 72.424 24.1822 72.4331C27.6056 72.4331 31.0471 72.33 34.4462 72.6332C41.4536 73.2578 45.9685 80.3531 43.7368 87.0149C43.5307 87.6213 43.4518 88.0822 43.8885 88.6644C46.7236 92.4455 47.2239 96.6027 45.2317 100.836C43.1456 105.257 39.419 107.546 34.5432 107.719C30.8803 107.849 27.2083 107.795 23.5424 107.719C22.865 107.715 22.195 107.577 21.5707 107.314C20.9464 107.051 20.3801 106.667 19.9042 106.185C19.4283 105.703 19.052 105.132 18.797 104.504C18.542 103.877 18.4132 103.205 18.418 102.528C18.3665 98.3765 18.418 94.2254 18.418 90.0744H18.3877ZM22.0263 90.0167C22.0263 94.0101 22.0263 98.0035 22.0263 101.997C22.0263 103.54 22.6024 104.104 24.1489 104.119C27.4176 104.119 30.6832 104.138 33.952 104.119C37.5269 104.101 40.3196 102.603 41.9024 99.3771C43.4488 96.2176 42.9454 93.1854 40.7228 90.4685C39.7071 89.2253 39.422 87.9094 40.08 86.4266C42.1571 81.7389 38.8671 76.011 32.6511 76.0505C29.9222 76.0686 27.1629 76.0505 24.4218 76.0505C22.56 76.0505 22.0263 76.5781 22.0233 78.4004C22.0253 82.2715 22.0263 86.1436 22.0263 90.0167Z" fill="#0171C7"/>
<path d="M63.0853 14.7061C66.2994 14.8426 68.8465 16.7953 70.2685 20.2308C72.3001 25.1005 74.2771 29.9914 76.2753 34.8733C77.185 37.111 78.1098 39.3458 79.0043 41.5896C79.82 43.6242 79.6502 45.5587 78.1886 47.2477C76.7271 48.9366 74.8138 49.3429 72.6913 48.9002C70.8325 48.5121 69.8016 47.1991 69.2224 45.5254C68.8859 44.5551 68.3492 44.3125 67.3667 44.3125C64.0616 44.3731 60.7535 44.3731 57.4424 44.3125C56.5327 44.2943 56.1112 44.5763 55.7686 45.4192C54.6922 48.0694 52.4332 49.4217 50.0074 49.0185C46.4143 48.412 44.601 44.8522 46.0807 41.2106C48.8865 34.3073 51.7095 27.411 54.5496 20.5219C54.9162 19.6283 55.3842 18.7798 55.9445 17.993C57.503 15.8644 59.8833 14.7001 63.0853 14.7061ZM62.4788 40.7163C64.7348 40.7163 66.9968 40.7527 69.2528 40.7011C70.6112 40.6708 71.4602 41.2136 71.8999 42.5205C72.1576 43.2785 72.4062 44.1093 72.9066 44.6915C73.2735 45.113 74.171 45.4981 74.6106 45.3252C75.1352 45.1221 75.5567 44.3549 75.769 43.7455C75.8963 43.3786 75.5749 42.8358 75.396 42.387C72.6973 35.7486 69.9936 29.1121 67.2849 22.4777C66.3904 20.2732 65.1987 18.3872 62.491 18.3812C59.7832 18.3751 58.5825 20.2247 57.6849 22.4382C55.057 28.9271 52.4099 35.413 49.7436 41.8958C49.5224 42.3695 49.3428 42.8616 49.2069 43.3664C49.0129 44.2549 49.304 44.9796 50.1924 45.3252C51.0808 45.6709 51.7904 45.2949 52.2209 44.5096C52.5626 43.8697 52.8447 43.1998 53.0639 42.5083C53.4914 41.2106 54.3495 40.6739 55.7079 40.689C57.9639 40.7527 60.232 40.7163 62.4849 40.7163H62.4788Z" fill="#0171C7"/>
<path d="M78.0552 90.793C78.0795 85.8748 79.35 81.7995 82.2124 78.2761C83.1008 77.1845 84.156 76.9874 85.0353 77.7242C85.9147 78.4611 85.9025 79.3859 85.0596 80.5078C81.7242 84.953 80.8145 89.8409 82.5641 95.1169C84.4713 100.848 89.3138 104.362 94.802 104.083C98.0677 103.916 100.739 102.443 102.913 100.038C103.623 99.2528 103.608 98.4038 102.874 97.6639C102.14 96.9241 101.358 97.1121 100.594 97.6882C99.4716 98.5281 98.4285 99.5773 97.1732 100.114C93.2314 101.797 89.0621 100.15 86.6485 96.1721C83.8528 91.5571 84.7533 85.1743 88.7164 81.5448C90.2016 80.1776 92.148 79.4212 94.1667 79.4268C96.1853 79.4324 98.1275 80.1996 99.605 81.5751C99.9295 81.8783 100.239 82.1967 100.581 82.4848C101.324 83.0912 102.097 83.2731 102.834 82.4848C103.571 81.6964 103.577 80.8898 102.856 80.1075C100.278 77.3119 97.1308 75.8625 93.2799 76.1414C92.4005 76.2081 91.5364 76.4446 90.6601 76.5841C89.526 76.7539 88.6649 76.2112 88.4496 75.2227C88.2525 74.313 88.8104 73.464 89.8353 73.1001C95.1235 71.2808 102.143 73.3185 105.618 77.7455C106.97 79.4738 107.486 81.4508 106.485 83.5066C105.575 85.3987 104.008 86.6753 101.846 86.654C100.8 86.654 99.7233 86.0476 98.7257 85.6201C98.3042 85.4412 97.9919 84.9985 97.6402 84.668C94.984 82.1846 91.8396 82.5788 89.8868 85.6443C89.0502 87.0328 88.6241 88.6299 88.6579 90.2506C88.6917 91.8713 89.184 93.4492 90.0779 94.8015C91.9912 97.5639 95.1356 97.9368 97.5128 95.5778C99.2897 93.8191 101.279 93.0914 103.662 93.9586C104.403 94.2275 105.073 94.6627 105.619 95.2308C106.165 95.799 106.574 96.4848 106.814 97.2357C107.054 97.9866 107.118 98.7824 107.002 99.5621C106.887 100.342 106.593 101.085 106.145 101.733C102.379 107.379 93.853 109.462 87.5369 106.151C81.2208 102.84 78.4585 97.294 78.0552 90.793Z" fill="#0171C7"/>
<path d="M35.2861 91.0325C32.5966 90.8354 29.8858 90.887 27.1841 90.9325C25.9712 90.9537 25.3951 91.6299 25.3648 92.9004C25.3223 94.8774 25.3193 96.8574 25.3648 98.8313C25.3981 100.132 26.0349 100.726 27.3418 100.769C28.591 100.805 29.8433 100.769 31.0926 100.769V100.736C32.3843 100.736 33.6791 100.799 34.9647 100.72C36.1628 100.625 37.2837 100.092 38.1129 99.2219C38.942 98.3519 39.4211 97.2066 39.4584 96.0053C39.5524 93.5492 37.7361 91.2114 35.2861 91.0325ZM34.5948 97.0636C32.7755 97.2 30.9349 97.1212 29.0519 97.1212V94.5681C30.9592 94.5681 32.7997 94.4892 34.6251 94.6257C35.0496 94.659 35.7318 95.4322 35.7288 95.8628C35.7258 96.2934 35.0314 97.0302 34.5948 97.0636Z" fill="#0171C7"/>
<path d="M38.0272 83.9251C38.0171 82.7376 37.5429 81.6012 36.7061 80.7587C35.8692 79.9162 34.736 79.4344 33.5487 79.4162C32.542 79.3707 31.5323 79.4162 30.5165 79.4162C29.5068 79.4162 28.497 79.4162 27.4843 79.4162C26.0379 79.4435 25.3617 80.0226 25.3405 81.4387C25.294 83.2944 25.294 85.1501 25.3405 87.0058C25.3739 88.3127 25.9773 88.9646 27.2842 88.9888C29.5007 89.0313 31.7294 89.0768 33.9338 88.8979C36.5505 88.6704 38.1364 86.6116 38.0272 83.9251ZM33.3455 85.332C31.9537 85.3684 30.5589 85.332 29.0337 85.332V83.0245C30.5165 83.0245 31.9537 82.9517 33.3728 83.0761C33.7427 83.1094 34.237 83.7159 34.3552 84.1464C34.5463 84.856 34.055 85.3108 33.3455 85.332Z" fill="#0171C7"/>
<path d="M68.6069 34.5246C67.206 30.9708 65.7202 27.4353 64.2769 23.8937C63.9464 23.0871 63.437 22.514 62.494 22.514C61.551 22.514 61.0294 23.0659 60.6989 23.8755C59.2526 27.4201 57.785 30.9526 56.369 34.5064C55.6746 36.2468 56.4266 37.3597 58.3005 37.4233C59.671 37.4688 61.0446 37.4233 62.4152 37.4233C63.7857 37.4233 65.2412 37.4597 66.6602 37.4233C68.5341 37.3657 69.2982 36.2499 68.6069 34.5246ZM60.614 33.718C61.2205 32.2019 61.7814 30.8253 62.4788 29.1C63.1671 30.7859 63.7372 32.1776 64.3649 33.718H60.614Z" fill="#0171C7"/>
</svg>
