<svg width="110" height="148" viewBox="0 0 110 148" fill="none" xmlns="http://www.w3.org/2000/svg">
<path d="M65.0617 124.106C68.0833 124.919 70.9091 125.419 73.5351 126.439C76.0099 127.336 78.3356 128.598 80.4346 130.183C84.4797 133.435 84.3166 138.183 80.3245 141.528C77.4946 143.898 74.1223 145.187 70.5911 146.037C58.9248 148.817 47.3074 148.805 35.8654 144.963C33.5611 144.172 31.4036 143.008 29.4798 141.516C25.3205 138.297 25.3328 133.471 29.3452 130.081C32.905 127.053 37.2845 125.878 41.7169 124.882C42.6466 124.675 43.5804 124.496 44.8731 124.228C41.88 120.475 39.2703 116.764 36.2161 113.467C30.071 106.833 23.7547 100.353 17.3772 93.9549C8.81402 85.3492 2.94622 75.3126 1.13165 63.2515C-1.8206 43.6132 4.13283 26.9342 18.8451 13.6861C30.4992 3.19011 44.4694 -1.04162 60.0992 0.214482C82.763 2.03157 103.017 19.6089 107.926 42.0115C112.269 61.8368 106.927 79.0361 92.7778 93.4021C85.2177 101.081 77.3519 108.443 70.6074 116.898C68.7398 119.232 66.9619 121.634 65.0617 124.106ZM54.9776 130.61C55.2997 130.11 55.577 129.63 55.8951 129.179C59.7607 123.768 63.4592 118.227 67.545 112.988C74.0693 104.634 81.8781 97.4712 89.3199 89.959C101.83 77.3207 107.017 62.1051 103.441 44.5481C98.0298 17.9666 72.9765 1.1088 46.2146 5.63322C17.895 10.4219 -0.540204 39.1131 6.85673 66.8775C9.495 76.7882 14.9102 84.9711 22.352 91.9305C30.8662 99.8981 38.9237 108.292 45.9006 117.654C49.0119 121.837 51.8948 126.199 54.9776 130.614V130.61ZM54.9572 143.089C61.0533 142.943 67.2351 142.472 73.0703 140.089C74.657 139.426 76.1423 138.543 77.4824 137.467C78.8525 136.382 78.775 135.163 77.4497 133.988C76.6492 133.287 75.7627 132.69 74.8115 132.211C70.9988 130.272 66.86 129.48 62.664 128.959C62.4108 128.978 62.1649 129.053 61.9447 129.179C61.7245 129.304 61.5355 129.478 61.3918 129.687C60.144 131.602 58.9819 133.569 57.7993 135.524C57.1021 136.675 56.6413 138.073 54.9083 138.085C53.11 138.085 52.6207 136.658 51.8948 135.455C50.7409 133.545 49.6113 131.618 48.3799 129.764C48.1148 129.358 47.4012 128.902 47.0016 128.988C43.5804 129.707 40.1429 130.398 36.8074 131.427C35.2048 131.91 33.7002 132.939 32.3505 133.971C30.8784 135.098 30.8621 136.411 32.3056 137.541C33.6071 138.584 35.0499 139.44 36.5913 140.081C42.4305 142.439 48.6041 142.959 54.9572 143.089Z" fill="#0171C7"/>
<path d="M54.8756 12.9829C77.7678 12.9829 96.4028 31.6293 96.3784 54.4913C96.3539 77.3532 77.6659 95.955 54.7859 95.9102C31.9508 95.8615 13.377 77.2678 13.3606 54.475C13.3443 31.6131 31.9916 12.9788 54.8756 12.9829ZM18.2416 54.4466C18.2416 74.5849 34.6584 91.0322 54.8145 91.0322C74.9705 91.0322 91.4484 74.6703 91.4933 54.5319C91.5382 34.3245 75.0724 17.8487 54.843 17.8609C34.6136 17.8731 18.2498 34.2879 18.2416 54.4303V54.4466Z" fill="#0171C7"/>
<path d="M78.4529 50.1823C76.8218 50.9262 75.4272 51.4912 74.1183 52.2148C73.7798 52.4059 73.5922 53.1295 73.5882 53.6132C73.5474 57.9791 73.5188 62.345 73.5882 66.7109C73.6235 67.3641 73.4925 68.0157 73.2073 68.6049C72.9221 69.1941 72.492 69.7018 71.9571 70.0808C61.4774 78.3939 48.3309 78.4142 37.839 70.1255C37.2828 69.7332 36.8362 69.2058 36.5415 68.5933C36.2468 67.9809 36.1137 67.3035 36.1549 66.6255C36.2283 62.3084 36.1549 57.9913 36.1998 53.6783C36.1998 52.7392 35.947 52.223 35.0458 51.8408C32.7623 50.8612 30.5359 49.7473 28.2687 48.727C27.2166 48.2514 26.4786 47.601 26.45 46.353C26.4215 45.0319 27.2044 44.3611 28.3054 43.853C35.7676 40.4031 43.2243 36.9437 50.6756 33.4749C51.9544 32.8373 53.3624 32.4996 54.7922 32.4876C56.2219 32.4756 57.6355 32.7897 58.9248 33.4058C66.4712 36.9071 74.019 40.4058 81.5682 43.9018C82.1174 44.111 82.5853 44.4897 82.9036 44.9825C83.2219 45.4753 83.3741 46.0566 83.3379 46.6416C83.3135 50.2473 83.3379 53.8531 83.3379 57.4588C83.3379 59.1336 82.4734 59.9872 80.9647 59.9954C79.456 60.0035 78.5181 59.1376 78.4895 57.5116C78.408 55.162 78.4529 52.7921 78.4529 50.1823ZM74.9705 46.3937C74.7384 46.2194 74.496 46.0593 74.2447 45.914C68.4516 43.2175 62.6559 40.5264 56.8574 37.8408C56.1896 37.5292 55.458 37.3777 54.7209 37.3981C53.9839 37.4186 53.2619 37.6105 52.6125 37.9586C47.0995 40.54 41.5783 43.0888 36.053 45.6457C35.6452 45.8327 35.2619 46.0522 34.7074 46.3571C40.9952 49.2677 47.0913 52.1498 53.2527 54.8937C54.2899 55.2963 55.4409 55.2963 56.4782 54.8937C62.6436 52.1539 68.7398 49.2758 74.9705 46.3937ZM41.0645 54.6823C41.0645 58.6173 41.04 62.3084 41.1053 65.9995C41.1053 66.3775 41.6272 66.8125 41.9983 67.1011C49.4197 72.6865 58.5782 72.9223 66.6887 67.8694C68.1241 66.971 68.9518 66.032 68.7276 64.2434C68.5644 63.0482 68.6949 61.8043 68.6949 60.5848V54.6905C65.6204 56.1132 62.7782 57.3287 60.0258 58.7311C56.5312 60.5076 53.1548 60.475 49.6725 58.6945C46.9119 57.3165 44.0738 56.097 41.0645 54.6823Z" fill="#0171C7"/>
</svg>
