<svg width="123" height="122" viewBox="0 0 123 122" fill="none" xmlns="http://www.w3.org/2000/svg">
<path d="M122.397 86.2623V88.6452C122.303 88.8111 122.22 88.983 122.149 89.16C121.247 91.8066 119.309 93.3222 116.529 93.5128C115.83 93.5604 115.124 93.5128 114.381 93.5128V109.818H116.233C117.228 109.785 118.214 110.008 119.099 110.465C119.983 110.922 120.734 111.599 121.282 112.43C121.703 113.131 122.076 113.861 122.397 114.613V116.996C121.66 119.595 119.995 121.263 117.402 122H18.6979C18.4854 121.91 18.2653 121.838 18.0402 121.787C14.0855 121.218 10.3861 119.496 7.40406 116.837C4.422 114.178 2.2894 110.699 1.27258 106.835C0.255758 102.971 0.399777 98.8934 1.68665 95.1108C2.97352 91.3283 5.34622 88.0086 8.50845 85.5665C12.2512 82.6688 16.5151 81.3217 21.2174 81.2994C22.3771 81.2994 23.5368 81.2994 24.7124 81.2994C24.5131 80.9577 24.2368 80.6672 23.9054 80.4511C16.9186 75.3008 12.9725 68.3808 12.8676 59.7323C12.7247 48.3959 17.9862 40.1128 28.1534 35.0419C28.7539 34.74 29.0494 34.4318 29.043 33.7138C29.0112 29.5834 29.0112 25.4529 29.043 21.3225C29.043 20.5568 28.8015 20.3344 28.0422 20.2486C26.0307 20.0079 24.1827 19.0216 22.8632 17.4844C21.5437 15.9473 20.8488 13.9711 20.9156 11.9465C21.1126 7.65717 24.436 4.15902 28.6617 4.09865C35.6771 3.9991 42.6914 3.9991 49.7047 4.09865C53.7461 4.15266 57.0123 7.40934 57.4254 11.473C57.5963 13.3887 57.0812 15.3027 55.9721 16.8739C54.8629 18.4451 53.2318 19.5713 51.3695 20.0516C50.7341 20.2168 50.07 20.2994 49.352 20.4361C49.352 25.0081 49.3361 29.5294 49.3838 34.0506C49.3838 34.3524 49.8 34.74 50.1145 34.937C51.7031 35.9188 53.3744 36.7481 54.8804 37.8251C58.2959 40.2621 60.8473 43.4807 62.8426 47.3569C63.7958 45.924 64.6091 44.5832 65.5146 43.2932C66.9549 41.2286 67.6945 38.7561 67.6243 36.2397C67.5894 30.0441 67.6243 23.8484 67.6243 17.656C67.6243 17.2016 67.5735 16.7473 67.5481 16.2866L66.8173 16.2167C65.1655 16.0607 63.6019 15.3993 62.3397 14.3224C61.0774 13.2455 60.178 11.8056 59.7638 10.199C59.3235 8.61972 59.3852 6.94266 59.9402 5.39999C60.4952 3.85733 61.5162 2.52539 62.8616 1.58862C63.8847 0.892807 65.1238 0.521069 66.2645 0H89.3377C89.7348 0.152508 90.1288 0.317725 90.5291 0.454347C92.1336 1.00763 93.5244 2.04991 94.5058 3.43462C95.4873 4.81934 96.01 6.47683 96.0005 8.17405C95.9911 9.87127 95.4499 11.5228 94.453 12.8965C93.4562 14.2702 92.0539 15.2969 90.4433 15.8322C89.6649 16.0832 88.8356 16.1849 87.9015 16.3819V17.6274C87.9015 23.7849 87.9524 29.9392 87.8761 36.0935C87.8344 38.7225 88.6056 41.3002 90.0843 43.4743C96.7851 53.6892 103.41 63.9517 110.101 74.1602C111.528 76.3334 112.792 78.4717 111.848 81.3185C113.374 81.3185 114.708 81.3185 116.055 81.3185C118.066 81.3344 119.814 82.0175 121.031 83.6538C121.618 84.4322 121.952 85.3886 122.397 86.2623ZM110.193 93.5446H108.554C79.7021 93.5446 50.8485 93.5446 21.9927 93.5446C21.2405 93.5328 20.4883 93.5657 19.74 93.6431C15.4762 94.1387 12.2163 98.4502 12.874 102.695C13.5476 107.057 16.8392 109.812 21.4526 109.815C50.6218 109.815 79.7921 109.815 108.964 109.815C109.348 109.815 109.736 109.78 110.174 109.758V103.686H108.811C106.628 103.686 104.449 103.702 102.269 103.686C100.96 103.67 100.074 102.835 100.07 101.688C100.067 100.541 100.96 99.6735 102.247 99.6417C103.912 99.6067 105.577 99.6417 107.241 99.6417H110.193V93.5446ZM71.6753 16.2485V17.8371C71.6753 23.9946 71.6563 30.1489 71.6753 36.3064C71.7219 39.5399 70.7845 42.7112 68.9874 45.3997C64.5996 52.056 60.2754 58.7442 55.9257 65.4354C53.2187 69.587 50.5117 73.7408 47.8047 77.8966C47.3154 78.6433 47.093 79.3995 47.5282 80.2414C47.9635 81.0834 48.707 81.3662 49.6062 81.3249C49.765 81.3249 49.9239 81.3249 50.0827 81.3249H105.367C105.643 81.3249 105.923 81.3249 106.199 81.3249C107.788 81.2105 108.604 79.7362 107.883 78.316C107.69 77.9691 107.478 77.6329 107.248 77.3088C100.347 66.6502 93.4289 56.0085 86.494 45.3838C84.8704 42.9024 83.8569 40.243 83.8537 37.2469C83.8537 29.702 83.8537 22.156 83.8537 14.609C83.8537 12.9473 84.5909 12.2292 86.2462 12.1816C87.1168 12.1562 88.0096 12.2356 88.8515 12.064C89.8081 11.8395 90.6497 11.2731 91.2179 10.4715C91.7861 9.66981 92.0417 8.68814 91.9366 7.71118C91.829 6.69217 91.341 5.75124 90.5701 5.07628C89.7991 4.40132 88.8019 4.04199 87.7776 4.07006C81.1181 4.04676 74.4586 4.04676 67.7991 4.07006C65.3304 4.07006 63.5765 5.78259 63.5606 8.10516C63.5606 10.4786 65.3081 12.1689 67.8595 12.1816C70.9509 12.1975 74.0424 12.1816 77.1338 12.1816C78.8051 12.1816 79.7932 12.9727 79.7773 14.2531C79.7614 15.5336 78.8241 16.2357 77.1974 16.2421C75.4213 16.2548 73.6452 16.2485 71.6753 16.2485ZM67.9579 89.465H115.162C115.676 89.4844 116.191 89.4588 116.7 89.3887C117.159 89.3317 117.58 89.1039 117.879 88.7507C118.178 88.3975 118.334 87.9447 118.314 87.4824C118.351 87.0393 118.225 86.598 117.96 86.2415C117.694 85.8851 117.307 85.6382 116.872 85.5474C116.331 85.4332 115.778 85.3873 115.226 85.4108C99.5303 85.4108 83.8357 85.4108 68.1422 85.4108C52.525 85.4108 36.9088 85.4108 21.2937 85.4108C12.1655 85.4267 4.92133 92.3118 4.68304 101.106C4.60301 103.302 4.9692 105.492 5.75947 107.542C6.54973 109.592 7.74765 111.461 9.28078 113.035C10.8139 114.609 12.6504 115.856 14.6791 116.7C16.7079 117.544 18.8868 117.968 21.084 117.946C52.5938 117.965 84.1026 117.965 115.61 117.946C115.966 117.963 116.323 117.945 116.675 117.892C117.146 117.798 117.57 117.543 117.873 117.17C118.176 116.797 118.339 116.329 118.333 115.849C118.316 115.345 118.11 114.866 117.758 114.506C117.405 114.147 116.93 113.932 116.427 113.904C115.995 113.863 115.556 113.885 115.121 113.885H22.0403C21.4843 113.885 20.9283 113.885 20.3755 113.863C11.4792 113.402 6.01431 104.014 10.113 96.1181C12.5277 91.473 16.5437 89.4459 21.7067 89.4459C37.1249 89.4734 52.5419 89.4798 67.9579 89.465ZM57.257 55.6781C57.3237 55.6559 57.4222 55.6495 57.454 55.6019C58.1784 54.5121 58.8488 53.3778 59.6304 52.3388C60.1038 51.7034 60.0879 51.1601 59.7956 50.4801C57.3015 44.7039 53.1806 40.5862 47.363 38.1905C45.4567 37.4121 45.2946 37.1802 45.2915 35.1022V20.3344C45.2915 16.3851 45.3264 16.3501 49.2408 16.2485C51.6142 16.1881 53.3712 14.4946 53.3966 12.2451C53.422 9.99563 51.6142 8.14329 49.2058 8.13376C42.5124 8.10834 35.8158 8.10834 29.1161 8.13376C28.5791 8.12236 28.0452 8.21803 27.5456 8.41519C27.046 8.61235 26.5906 8.90705 26.2061 9.28208C25.8216 9.65711 25.5157 10.105 25.3061 10.5995C25.0966 11.0941 24.9876 11.6254 24.9857 12.1625C24.9602 14.4501 26.749 16.2135 29.1796 16.2389C31.7945 16.2675 34.4094 16.2389 37.0243 16.2389C37.8167 16.2102 38.6102 16.2261 39.4008 16.2866C39.9101 16.3353 40.3815 16.5768 40.7185 16.9617C41.0555 17.3467 41.2325 17.8459 41.2135 18.3571C41.1944 18.8683 40.9806 19.353 40.6158 19.7117C40.2511 20.0704 39.763 20.2761 39.2515 20.2867C38.7368 20.3217 38.2221 20.2867 37.7042 20.3058H33.1035V21.8944C33.1035 26.3426 33.1035 30.7907 33.1035 35.2389C33.1035 37.0912 32.8366 37.4629 31.1082 38.1651C20.9601 42.2574 15.2633 52.4246 17.2904 63.1923C19.3524 74.1443 29.3385 82.9739 43.3438 81.1946L43.5757 76.7814C32.3759 79.2183 23.4479 72.0155 21.389 63.1192C20.3625 58.6255 21.0573 53.9102 23.3365 49.9035C25.6156 45.8969 29.3136 42.8899 33.7009 41.4758C42.5241 38.6703 54.6802 43.2868 57.257 55.6781ZM40.1475 44.8342C37.7279 44.5901 35.2883 45.0305 33.1067 46.1051C30.0483 47.5518 27.6076 50.0437 26.2245 53.1314C24.8415 56.219 24.6072 59.6993 25.5639 62.9445C27.4417 69.5214 33.9233 73.9187 40.7448 73.0767C44.4813 72.616 47.7729 71.2593 49.6665 67.6214C50.3659 66.3768 51.1416 65.1767 51.9891 64.0279C53.9653 61.1684 53.5015 58.1309 52.8247 54.8806C49.0628 57.5304 45.3677 57.8069 41.9426 54.8075C38.8575 52.1069 38.5112 48.6691 40.1475 44.8342ZM47.2423 52.8853C48.4973 52.8313 49.5903 52.3992 50.3401 51.3793C50.4327 51.2149 50.4845 51.0307 50.4911 50.8422C50.4977 50.6537 50.459 50.4663 50.3782 50.2958C49.0388 48.5136 47.2896 47.0804 45.2787 46.1178C44.6814 45.8223 44.3256 45.978 44.0078 46.4832C43.1277 47.8208 42.9879 49.2188 43.7155 50.6517C44.4431 52.0846 45.6759 52.7582 47.2423 52.8853Z" fill="#0171C7"/>
<path d="M24.023 103.686C23.6258 103.686 23.2286 103.702 22.8347 103.686C22.3375 103.66 21.8676 103.451 21.5156 103.099C21.1635 102.747 20.9543 102.277 20.9283 101.78C20.9135 101.279 21.0829 100.791 21.4044 100.406C21.7259 100.022 22.1771 99.7694 22.6726 99.6957C23.0267 99.6517 23.3838 99.6378 23.7402 99.6544C46.2393 99.6544 68.7364 99.6544 91.2313 99.6544C91.7042 99.635 92.1771 99.6908 92.6325 99.8196C93.6269 100.16 94.0495 100.932 93.9256 101.961C93.895 102.403 93.7068 102.818 93.3954 103.133C93.084 103.447 92.6701 103.639 92.229 103.674C91.7963 103.719 91.3608 103.73 90.9263 103.709L24.023 103.686Z" fill="#0171C7"/>
<path d="M77.7629 77.2516C72.2568 77.2516 66.7506 77.223 61.2412 77.2516C59.4302 77.2516 57.9496 76.7592 57.0505 75.1165C56.1513 73.4739 56.5421 71.9393 57.5493 70.4364C62.3427 63.2961 67.1181 56.143 71.8755 48.9773C72.889 47.4459 74.2203 46.6928 76.0409 46.731C77.2292 46.7564 78.4174 46.731 79.6057 46.731C80.3615 46.7002 81.1119 46.8694 81.7813 47.2214C82.4508 47.5734 83.0155 48.0958 83.4184 48.7358C88.2902 56.0562 93.1768 63.3723 98.0783 70.6843C99.0124 72.0822 99.2157 73.5597 98.4278 75.0657C97.6112 76.6289 96.2418 77.2453 94.5039 77.2389C88.931 77.2357 83.3454 77.2485 77.7629 77.2516ZM94.7612 73.1212C94.4657 72.6414 94.2529 72.2729 94.0209 71.9202C89.8905 65.7246 85.6584 59.5829 81.6582 53.3015C80.4477 51.3952 79.18 50.3816 76.9337 50.8265C76.4412 50.9218 75.7136 50.7788 75.4849 51.0647C74.5698 52.2086 73.8073 53.4763 72.8668 54.8774C73.8676 54.8774 74.5762 54.8774 75.2847 54.8774C76.8415 54.9156 77.6962 55.6336 77.7089 56.895C77.7216 58.1564 76.8828 58.9157 75.3387 58.9443C73.874 58.9666 72.4061 58.9284 70.9414 58.9666C70.5855 58.9666 70.0899 59.0778 69.9088 59.3224C69.07 60.4503 68.3202 61.6418 67.3924 63.0303H70.1248C70.5982 63.0303 71.078 63.0303 71.5514 63.0303C72.8477 63.1097 73.6262 63.8405 73.6548 64.9843C73.6724 65.2538 73.6339 65.524 73.5415 65.7778C73.4492 66.0316 73.3051 66.2634 73.1183 66.4585C72.9316 66.6536 72.7063 66.8078 72.4568 66.9111C72.2073 67.0145 71.939 67.0649 71.669 67.059C69.6514 67.1321 67.6307 67.059 65.61 67.1098C65.216 67.1098 64.6568 67.2115 64.463 67.4784C63.1921 69.2736 61.9943 71.1259 60.6821 73.1021L94.7612 73.1212Z" fill="#0171C7"/>
<path d="M29.0462 61.0318C29.0437 59.8251 29.3999 58.6448 30.0696 57.641C30.7392 56.6371 31.6921 55.855 32.8072 55.3938C33.9223 54.9326 35.1494 54.8132 36.3324 55.0508C37.5155 55.2884 38.6013 55.8723 39.4519 56.7283C40.3025 57.5842 40.8795 58.6737 41.1096 59.8582C41.3398 61.0428 41.2127 62.269 40.7445 63.3812C40.2763 64.4934 39.4882 65.4413 38.4801 66.1047C37.4721 66.768 36.2896 67.1168 35.083 67.1067C33.4807 67.0892 31.9497 66.4423 30.8202 65.3058C29.6908 64.1692 29.0536 62.6341 29.0462 61.0318ZM35.1211 63.008C35.3911 63.0151 35.6598 62.9676 35.911 62.8684C36.1622 62.7691 36.3909 62.6203 36.5832 62.4306C36.7756 62.241 36.9277 62.0145 37.0305 61.7647C37.1332 61.5149 37.1846 61.2469 37.1813 60.9768C37.1781 60.7067 37.1205 60.4401 37.0118 60.1928C36.9031 59.9455 36.7457 59.7227 36.5489 59.5377C36.3521 59.3526 36.12 59.2092 35.8664 59.116C35.6129 59.0228 35.3432 58.9817 35.0734 58.9952C34.5547 59.021 34.0662 59.2469 33.7104 59.6253C33.3547 60.0037 33.1594 60.5052 33.1656 61.0245C33.1718 61.5439 33.3789 62.0406 33.7435 62.4104C34.1082 62.7803 34.6019 62.9945 35.1211 63.008Z" fill="#0171C7"/>
</svg>
