<svg width="16" height="17" viewBox="0 0 16 17" fill="none" xmlns="http://www.w3.org/2000/svg">
<path d="M8.97922 3.23018H3.86753C3.65987 3.23018 3.46019 3.23817 3.2685 3.26213C1.12 3.44583 0.041748 4.71576 0.041748 7.05596V10.2508C0.041748 13.4456 1.31967 14.0766 3.86753 14.0766H4.18701C4.36273 14.0766 4.59435 14.1964 4.69818 14.3321L5.65662 15.6101C6.07994 16.1771 6.76682 16.1771 7.19013 15.6101L8.14857 14.3321C8.26838 14.1724 8.46007 14.0766 8.65974 14.0766H8.97922C11.3194 14.0766 12.5894 13.0063 12.7731 10.8498C12.797 10.6581 12.805 10.4584 12.805 10.2508V7.05596C12.805 4.5081 11.5271 3.23018 8.97922 3.23018ZM3.63591 9.6198C3.18863 9.6198 2.83721 9.26038 2.83721 8.82109C2.83721 8.38181 3.19662 8.02239 3.63591 8.02239C4.07519 8.02239 4.43461 8.38181 4.43461 8.82109C4.43461 9.26038 4.07519 9.6198 3.63591 9.6198ZM6.42338 9.6198C5.9761 9.6198 5.62468 9.26038 5.62468 8.82109C5.62468 8.38181 5.98409 8.02239 6.42338 8.02239C6.86266 8.02239 7.22208 8.38181 7.22208 8.82109C7.22208 9.26038 6.87065 9.6198 6.42338 9.6198ZM9.21883 9.6198C8.77156 9.6198 8.42013 9.26038 8.42013 8.82109C8.42013 8.38181 8.77955 8.02239 9.21883 8.02239C9.65812 8.02239 10.0175 8.38181 10.0175 8.82109C10.0175 9.26038 9.65812 9.6198 9.21883 9.6198Z" fill="white"/>
<path d="M16 3.86115V7.05596C16 8.65337 15.5048 9.7396 14.5144 10.3386C14.2748 10.4824 13.9952 10.2907 13.9952 10.0112L14.0032 7.05596C14.0032 3.86115 12.1742 2.03213 8.97938 2.03213L4.11532 2.04011C3.83578 2.04011 3.64409 1.76057 3.78786 1.52096C4.38688 0.530565 5.47312 0.0353699 7.0625 0.0353699H12.1742C14.722 0.0353699 16 1.31329 16 3.86115Z" fill="white"/>
</svg>
