<svg width="200" height="47" viewBox="0 0 200 47" fill="none" xmlns="http://www.w3.org/2000/svg">
<path d="M140.933 30.9877C138.857 31.4356 138.382 30.6212 138.416 29.2572C138.416 28.0967 138.416 26.8141 140.153 27.2212C141.402 27.4995 143.275 26.8955 143.295 29.2572C143.309 31.4559 141.497 30.6959 140.933 30.9877Z" fill="white"/>
<path d="M31.5642 24.2488C25.4904 29.1825 17.7675 26.8616 15.5212 19.3898C15.175 18.0809 14.721 16.803 14.1639 15.569C13.4788 14.1277 12.3304 12.9575 10.9022 12.2452C9.47408 11.533 7.84845 11.3198 6.28493 11.6397C4.72441 11.9509 3.29689 12.7333 2.195 13.8813C1.09311 15.0293 0.369886 16.4877 0.122905 18.0596C-1.00363 26.5697 5.74202 34.7541 15.1072 36.3014C23.1151 37.6247 32.9011 30.9334 33.7426 22.9594C32.5753 23.0273 32.1478 23.7534 31.5642 24.2488ZM6.00669 18.0596C6.00669 16.7838 5.91847 14.8429 7.73043 15.0261C9.54239 15.2094 9.35916 17.1503 9.54918 18.6229C9.27094 19.8648 9.33201 21.765 7.61506 21.6021C5.78953 21.4325 5.97276 19.4644 6.00669 18.0596ZM8.87054 31.2184C7.71686 30.2887 6.32565 29.1825 7.66257 27.3095C12.7999 31.9378 12.7999 31.9378 22.0768 33.0236C17.3535 34.6116 12.8949 34.4352 8.87054 31.2184Z" fill="#F0613B"/>
<path d="M31.3539 0.211471C22.4705 1.75198 15.6706 10.4793 17.0211 18.6161C17.3146 20.1759 18.0787 21.6084 19.2107 22.721C20.3426 23.8335 21.7881 24.5727 23.3528 24.8392C24.8568 25.1339 26.4162 24.9205 27.7858 24.2326C29.1555 23.5447 30.2578 22.4213 30.9196 21.0389C31.6008 19.6063 32.1549 18.1166 32.5754 16.587C33.013 15.0385 33.8317 13.6243 34.9566 12.4737C36.0814 11.3231 37.4767 10.4727 39.0149 10.0003C40.5532 9.52781 42.1852 9.44833 43.7621 9.7691C45.3389 10.0899 46.8102 10.8007 48.0416 11.8365C48.7813 12.4269 49.1885 13.5603 50.41 13.4653C50.539 13.2481 50.7697 13.0445 50.7426 12.8884C49.2563 4.98229 39.7215 -1.24081 31.3539 0.211471ZM24.5675 21.4664C22.8098 21.575 22.8777 19.5866 22.8098 18.3582C22.7352 16.967 22.7216 15.0058 24.5675 14.8836C26.4134 14.7615 25.9248 16.8381 26.4881 17.7814C26.1284 19.349 26.3523 21.351 24.5539 21.4664H24.5675ZM24.8118 9.45451C23.0813 7.14715 24.8118 6.06133 25.9384 5.0773C29.4401 1.99629 35.7922 1.50767 40.4341 4.34437C33.9327 3.46214 28.4222 3.67252 24.7983 9.45451H24.8118Z" fill="#F0613B"/>
<path d="M149.396 13.8182C147.55 13.5942 146.682 13.8996 146.607 15.9423C146.491 19.3355 146.179 22.6744 145.928 26.0608C146.166 29.6508 146.424 33.2408 146.607 36.8307C146.675 37.9573 146.872 38.7716 148.297 38.792C149.545 38.792 150.19 38.3848 150.244 37.1022C150.244 36.4236 150.441 35.7449 150.502 35.0663C150.93 30.5669 150.943 30.8112 155.456 30.4923C158.666 30.2615 160.017 31.3066 159.908 34.4419C159.908 35.2224 160.057 36.0096 160.085 36.7968C160.085 37.8758 160.207 38.7377 161.7 38.7716C163.193 38.8056 163.736 38.2559 163.919 36.9122C164.362 33.7872 164.324 30.6126 163.804 27.4995C162.195 19.1794 157.54 14.8225 149.396 13.8182ZM158.49 26.6512C156.603 28.0085 154.459 27.0244 152.43 27.262C151.072 27.4248 150.794 26.4951 150.808 25.3414C150.842 22.8915 150.808 20.4349 150.808 17.6728C155.477 18.7111 157.295 21.86 158.334 25.7147C158.436 26.0268 158.612 26.5697 158.49 26.6512Z" fill="white"/>
<path d="M57.1421 13.6485C55.6559 13.6485 55.4862 14.5918 55.4048 15.603C55.1605 18.8604 54.9772 22.1179 54.7669 25.3753H54.9705C54.8617 27.863 54.8799 30.3546 55.0247 32.8404C55.2758 35.2631 54.1493 35.4599 52.3102 35.1274C50.5595 34.8889 48.9177 34.14 47.5901 32.9741C46.2625 31.8082 45.3078 30.277 44.8452 28.5717C43.5422 24.4999 43.9426 20.3399 44.4041 16.1798C44.4991 15.3519 45.6188 14.1439 43.8476 13.7503C42.4903 13.4585 41.5267 13.8114 41.133 15.4333C40.1762 19.5866 39.3618 23.7534 39.9522 28.0899C40.8005 34.1976 43.8137 37.5297 49.7382 38.4866C52.0591 38.8599 54.4886 38.7174 56.8231 38.8599C58.3908 38.9481 58.9676 38.2491 59.1237 36.7018C59.7741 29.7423 59.7628 22.7368 59.0898 15.7794C58.9744 14.4968 58.6962 13.6621 57.1421 13.6485Z" fill="white"/>
<path d="M68.6789 20.9913C68.0003 21.0999 66.453 21.3985 64.8921 21.5546C64.6128 21.5442 64.3342 21.5914 64.0739 21.6934C63.8136 21.7953 63.577 21.9498 63.379 22.1472C63.181 22.3446 63.0258 22.5806 62.923 22.8406C62.8202 23.1006 62.7721 23.379 62.7816 23.6584C62.1833 30.4923 62.1719 37.3649 62.7476 44.2007C62.8562 45.592 63.4602 46.1213 64.8921 46.067C66.3241 46.0127 66.5073 45.1712 66.5073 44.0718C66.5073 43.6239 66.6159 43.176 66.6091 42.7145C66.5548 40.0882 66.548 37.6655 70.457 39.1517C71.5699 39.5792 72.8865 39.1178 74.0673 38.6427C78.1391 36.9868 80.114 33.1729 79.2317 28.4631C78.3088 23.5023 75.0921 21.0389 68.6789 20.9913ZM70.4909 35.6974C68.5975 35.8671 66.8941 35.6974 67.057 32.9829C67.1509 30.8598 67.0646 28.7326 66.7991 26.624C66.5819 24.6696 67.4777 24.2284 68.7061 24.4117C72.3232 24.4931 74.6442 26.7394 74.8138 29.9019C74.9835 33.0643 73.2937 35.4463 70.4909 35.6974Z" fill="white"/>
<path d="M97.0799 27.4452C96.73 26.1334 96.0642 24.9273 95.1407 23.9323C94.2171 22.9372 93.0639 22.1835 91.7819 21.7369C90.4998 21.2904 89.1279 21.1646 87.786 21.3706C86.4441 21.5766 85.1731 22.1081 84.084 22.9187C83.2629 23.5023 82.3263 23.9502 83.2493 25.2871C84.0026 26.3865 84.6066 25.9658 85.4481 25.5382C87.3007 24.5746 89.2484 23.9909 91.169 25.3686C91.6915 25.7418 92.2684 26.2576 92.0851 27.0176C91.9019 27.7777 91.2233 27.6284 90.6939 27.6963C88.3469 28.018 86.0749 28.7508 83.9822 29.8611C82.0617 30.9809 81.0301 32.5757 81.2677 34.8695C81.5052 37.1633 82.9846 38.1269 84.9391 38.7784C86.8936 39.4299 88.9363 39.3553 90.9586 39.3892C97.745 39.2874 97.806 39.2874 97.6907 32.44C97.6925 30.7563 97.4873 29.0788 97.0799 27.4452ZM93.2524 34.3266C93.8224 37.1226 91.1758 35.6838 90.3478 36.4846C88.5155 35.9553 86.4185 36.41 86.0656 34.1162C85.8213 32.5621 89.4113 30.0444 91.7933 30.3498C94.4332 30.6484 92.9742 32.9964 93.2524 34.3266Z" fill="white"/>
<path d="M108.413 21.4596C103.14 21.541 99.6791 25.1853 99.7605 30.5873C99.8352 35.6771 103.473 39.2331 108.583 39.2263C113.822 39.2263 117.466 35.5142 117.405 30.2276C117.344 24.941 113.761 21.3782 108.413 21.4596ZM108.583 36.0435C106.147 36.0435 104.511 33.8176 104.463 30.4923C104.416 27.0176 106.051 24.5406 108.461 24.4388C110.87 24.337 112.702 26.7326 112.756 30.214C112.811 33.6954 111.107 36.0639 108.583 36.0435Z" fill="white"/>
<path d="M120.975 21.9822C120.296 22.4097 120.235 23.034 120.12 23.6923C119.391 28.1473 119.375 32.6897 120.072 37.1497C120.228 38.222 120.581 38.7513 121.735 38.7852C122.888 38.8192 123.689 38.5477 123.771 37.2108C123.954 34.9713 124.191 32.7318 124.402 30.4991H124.185C124.137 29.5948 124.137 28.6887 124.185 27.7845C124.314 26.6783 123.302 25.1242 125.08 24.6085C125.795 24.4034 126.553 24.398 127.271 24.593C127.989 24.788 128.639 25.1759 129.152 25.7147C130.311 26.8246 130.986 28.3457 131.032 29.9494C131.134 32.1957 131.086 34.4419 131.127 36.695C131.127 37.523 130.754 38.5952 132.165 38.7309C133.353 38.8531 134.452 38.8056 134.846 37.3737C135.803 33.8515 136.393 30.2887 135.294 26.719C133.848 21.8736 125.508 19.1862 120.975 21.9822Z" fill="white"/>
<path d="M199.52 23.1087C199.364 21.9754 199.059 21.2289 197.708 21.161C196.134 21.0864 195.767 22.0432 195.672 23.2512C195.489 25.2871 195.367 27.323 195.218 29.3182H195.36C195.422 30.222 195.422 31.129 195.36 32.0328C195.204 33.1254 196.344 34.6795 194.682 35.2495C193.88 35.5553 193.002 35.5998 192.173 35.3768C191.344 35.1537 190.607 34.6745 190.067 34.0076C189.292 33.0201 188.778 31.853 188.574 30.6144C188.011 28.151 188.221 25.6807 188.309 23.2105C188.343 22.3283 188.676 21.3103 187.271 21.1746C186.205 21.0796 185.133 21.1135 184.807 22.3758C184.38 23.8927 184.07 25.44 183.878 27.0041C182.805 37.8623 188.628 39.7964 197.383 38.3373C198.59 38.1337 199.364 37.6587 199.568 36.2268C200.16 31.873 200.144 27.4581 199.52 23.1087Z" fill="white"/>
<path d="M177.973 34.4623C175.768 35.8739 173.528 35.3717 172.035 33.2543C171.286 32.2422 170.901 31.0072 170.94 29.7488C170.979 28.4903 171.442 27.2819 172.253 26.3186C173.834 24.2149 176.053 23.8077 178.197 25.3618C179.473 26.2915 180.193 25.9929 180.912 24.9546C181.815 23.6312 180.505 23.0951 179.799 22.5997C178.583 21.6631 177.126 21.0917 175.597 20.9523C174.069 20.8129 172.532 21.1113 171.167 21.8125C167.733 23.4819 166.566 26.563 166.416 30.2208C166.708 33.614 167.862 36.5254 171.255 38.0319C172.456 38.5613 173.481 38.982 173.162 40.6311C172.843 42.2802 174.092 42.1852 175.103 42.1445C175.917 42.1105 177.356 42.3277 177.03 41.0044C176.419 38.5205 178.387 38.3645 179.67 37.4212C180.444 36.8443 182.1 36.5796 181.285 35.0391C180.471 33.4986 179.439 33.5258 177.973 34.4623Z" fill="white"/>
</svg>
